<svg width="200" height="200" fill="none" xmlns="http://www.w3.org/2000/svg"><path d="M18.75 37.5c0-6.904 5.596-12.5 12.5-12.5H87.5v150H31.25c-6.904 0-12.5-5.596-12.5-12.5v-125z" fill="#1B1C1F"/><path d="M18.75 37.5c0-6.904 5.596-12.5 12.5-12.5H87.5v150H31.25c-6.904 0-12.5-5.596-12.5-12.5v-125z" fill="#fff" fill-opacity=".4"/><path d="M168.75 172.257c6.742.014 12.5-5.459 12.5-12.504V33.998c0-7.046-5.758-12.519-12.5-12.505v150.764z" fill="#1B1C1F"/><path d="M168.75 172.257c6.742.014 12.5-5.459 12.5-12.504V33.998c0-7.046-5.758-12.519-12.5-12.505v150.764z" fill="#fff" fill-opacity=".4"/><path d="m93.75 25 54.014-9.82c7.673-1.396 14.736 4.499 14.736 12.298v145.044c0 7.799-7.063 13.694-14.736 12.299L93.75 175V25z" fill="#1B1C1F"/><path d="m93.75 25 54.014-9.82c7.673-1.396 14.736 4.499 14.736 12.298v145.044c0 7.799-7.063 13.694-14.736 12.299L93.75 175V25z" fill="#fff" fill-opacity=".02"/></svg>