<svg width="319" height="452" viewBox="0 0 319 452" fill="none" xmlns="http://www.w3.org/2000/svg">
<path fill-rule="evenodd" clip-rule="evenodd" d="M0 10C0 4.47715 4.47716 0 10 0H228C233.523 0 238 4.47715 238 10V40C238 45.5228 233.523 50 228 50H143V105V121.5V195.941V196.266L130.879 222.259L62.8542 369.962L62.5358 369.726L93 275.746V50H10C4.47716 50 0 45.5228 0 40V10ZM33.0577 347.891L33.4995 346.932L33.1632 347.97L33.0577 347.891ZM239.893 61.1533L240.091 61.2428L222.254 122.441C276.501 127.366 319 172.97 319 228.5C319 287.318 271.318 335 212.5 335H169V442C169 447.523 164.523 452 159 452H129C123.477 452 119 447.523 119 442V322.643L169 215.418V285H212.5C243.704 285 269 259.704 269 228.5C269 197.296 243.704 172 212.5 172L208 172L207.81 172L188.948 172L239.893 61.1533ZM258.389 69.5292L258.186 69.9703L258.324 69.4995L258.389 69.5292Z" fill="#06FF14"/>
</svg>
